<?xml version="1.0" encoding="utf-8" standalone="no"?>
<!DOCTYPE svg PUBLIC "-//W3C//DTD SVG 1.1//EN"
  "http://www.w3.org/Graphics/SVG/1.1/DTD/svg11.dtd">
<!-- Created with matplotlib (https://matplotlib.org/) -->
<svg height="216pt" version="1.1" viewBox="0 0 720 216" width="720pt" xmlns="http://www.w3.org/2000/svg" xmlns:xlink="http://www.w3.org/1999/xlink">
 <metadata>
  <rdf:RDF xmlns:cc="http://creativecommons.org/ns#" xmlns:dc="http://purl.org/dc/elements/1.1/" xmlns:rdf="http://www.w3.org/1999/02/22-rdf-syntax-ns#">
   <cc:Work>
    <dc:type rdf:resource="http://purl.org/dc/dcmitype/StillImage"/>
    <dc:date>2022-02-27T13:11:39.121120</dc:date>
    <dc:format>image/svg+xml</dc:format>
    <dc:creator>
     <cc:Agent>
      <dc:title>Matplotlib v3.3.4, https://matplotlib.org/</dc:title>
     </cc:Agent>
    </dc:creator>
   </cc:Work>
  </rdf:RDF>
 </metadata>
 <defs>
  <style type="text/css">*{stroke-linecap:butt;stroke-linejoin:round;}</style>
 </defs>
 <g id="figure_1">
  <g id="patch_1">
   <path d="M 0 216 
L 720 216 
L 720 0 
L 0 0 
z
" style="fill:#ffffff;"/>
  </g>
  <g id="axes_1">
   <g id="patch_2">
    <path d="M 60.46 166.54 
L 350.610909 166.54 
L 350.610909 28.96 
L 60.46 28.96 
z
" style="fill:#eaeaf2;"/>
   </g>
   <g id="matplotlib.axis_1">
    <g id="xtick_1">
     <g id="line2d_1">
      <path clip-path="url(#pde301a623f)" d="M 65.139853 166.54 
L 65.139853 28.96 
" style="fill:none;stroke:#ffffff;stroke-linecap:round;"/>
     </g>
     <g id="text_1">
      <!-- 1 -->
      <g style="fill:#262626;" transform="translate(61.640478 184.398281)scale(0.11 -0.11)">
       <defs>
        <path d="M 12.40625 8.296875 
L 28.515625 8.296875 
L 28.515625 63.921875 
L 10.984375 60.40625 
L 10.984375 69.390625 
L 28.421875 72.90625 
L 38.28125 72.90625 
L 38.28125 8.296875 
L 54.390625 8.296875 
L 54.390625 0 
L 12.40625 0 
z
" id="DejaVuSans-49"/>
       </defs>
       <use xlink:href="#DejaVuSans-49"/>
      </g>
     </g>
    </g>
    <g id="xtick_2">
     <g id="line2d_2">
      <path clip-path="url(#pde301a623f)" d="M 83.859267 166.54 
L 83.859267 28.96 
" style="fill:none;stroke:#ffffff;stroke-linecap:round;"/>
     </g>
     <g id="text_2">
      <!-- 2 -->
      <g style="fill:#262626;" transform="translate(80.359892 184.398281)scale(0.11 -0.11)">
       <defs>
        <path d="M 19.1875 8.296875 
L 53.609375 8.296875 
L 53.609375 0 
L 7.328125 0 
L 7.328125 8.296875 
Q 12.9375 14.109375 22.625 23.890625 
Q 32.328125 33.6875 34.8125 36.53125 
Q 39.546875 41.84375 41.421875 45.53125 
Q 43.3125 49.21875 43.3125 52.78125 
Q 43.3125 58.59375 39.234375 62.25 
Q 35.15625 65.921875 28.609375 65.921875 
Q 23.96875 65.921875 18.8125 64.3125 
Q 13.671875 62.703125 7.8125 59.421875 
L 7.8125 69.390625 
Q 13.765625 71.78125 18.9375 73 
Q 24.125 74.21875 28.421875 74.21875 
Q 39.75 74.21875 46.484375 68.546875 
Q 53.21875 62.890625 53.21875 53.421875 
Q 53.21875 48.921875 51.53125 44.890625 
Q 49.859375 40.875 45.40625 35.40625 
Q 44.1875 33.984375 37.640625 27.21875 
Q 31.109375 20.453125 19.1875 8.296875 
z
" id="DejaVuSans-50"/>
       </defs>
       <use xlink:href="#DejaVuSans-50"/>
      </g>
     </g>
    </g>
    <g id="xtick_3">
     <g id="line2d_3">
      <path clip-path="url(#pde301a623f)" d="M 102.57868 166.54 
L 102.57868 28.96 
" style="fill:none;stroke:#ffffff;stroke-linecap:round;"/>
     </g>
     <g id="text_3">
      <!-- 3 -->
      <g style="fill:#262626;" transform="translate(99.079305 184.398281)scale(0.11 -0.11)">
       <defs>
        <path d="M 40.578125 39.3125 
Q 47.65625 37.796875 51.625 33 
Q 55.609375 28.21875 55.609375 21.1875 
Q 55.609375 10.40625 48.1875 4.484375 
Q 40.765625 -1.421875 27.09375 -1.421875 
Q 22.515625 -1.421875 17.65625 -0.515625 
Q 12.796875 0.390625 7.625 2.203125 
L 7.625 11.71875 
Q 11.71875 9.328125 16.59375 8.109375 
Q 21.484375 6.890625 26.8125 6.890625 
Q 36.078125 6.890625 40.9375 10.546875 
Q 45.796875 14.203125 45.796875 21.1875 
Q 45.796875 27.640625 41.28125 31.265625 
Q 36.765625 34.90625 28.71875 34.90625 
L 20.21875 34.90625 
L 20.21875 43.015625 
L 29.109375 43.015625 
Q 36.375 43.015625 40.234375 45.921875 
Q 44.09375 48.828125 44.09375 54.296875 
Q 44.09375 59.90625 40.109375 62.90625 
Q 36.140625 65.921875 28.71875 65.921875 
Q 24.65625 65.921875 20.015625 65.03125 
Q 15.375 64.15625 9.8125 62.3125 
L 9.8125 71.09375 
Q 15.4375 72.65625 20.34375 73.4375 
Q 25.25 74.21875 29.59375 74.21875 
Q 40.828125 74.21875 47.359375 69.109375 
Q 53.90625 64.015625 53.90625 55.328125 
Q 53.90625 49.265625 50.4375 45.09375 
Q 46.96875 40.921875 40.578125 39.3125 
z
" id="DejaVuSans-51"/>
       </defs>
       <use xlink:href="#DejaVuSans-51"/>
      </g>
     </g>
    </g>
    <g id="xtick_4">
     <g id="line2d_4">
      <path clip-path="url(#pde301a623f)" d="M 121.298094 166.54 
L 121.298094 28.96 
" style="fill:none;stroke:#ffffff;stroke-linecap:round;"/>
     </g>
     <g id="text_4">
      <!-- 4 -->
      <g style="fill:#262626;" transform="translate(117.798719 184.398281)scale(0.11 -0.11)">
       <defs>
        <path d="M 37.796875 64.3125 
L 12.890625 25.390625 
L 37.796875 25.390625 
z
M 35.203125 72.90625 
L 47.609375 72.90625 
L 47.609375 25.390625 
L 58.015625 25.390625 
L 58.015625 17.1875 
L 47.609375 17.1875 
L 47.609375 0 
L 37.796875 0 
L 37.796875 17.1875 
L 4.890625 17.1875 
L 4.890625 26.703125 
z
" id="DejaVuSans-52"/>
       </defs>
       <use xlink:href="#DejaVuSans-52"/>
      </g>
     </g>
    </g>
    <g id="xtick_5">
     <g id="line2d_5">
      <path clip-path="url(#pde301a623f)" d="M 140.017507 166.54 
L 140.017507 28.96 
" style="fill:none;stroke:#ffffff;stroke-linecap:round;"/>
     </g>
     <g id="text_5">
      <!-- 5 -->
      <g style="fill:#262626;" transform="translate(136.518132 184.398281)scale(0.11 -0.11)">
       <defs>
        <path d="M 10.796875 72.90625 
L 49.515625 72.90625 
L 49.515625 64.59375 
L 19.828125 64.59375 
L 19.828125 46.734375 
Q 21.96875 47.46875 24.109375 47.828125 
Q 26.265625 48.1875 28.421875 48.1875 
Q 40.625 48.1875 47.75 41.5 
Q 54.890625 34.8125 54.890625 23.390625 
Q 54.890625 11.625 47.5625 5.09375 
Q 40.234375 -1.421875 26.90625 -1.421875 
Q 22.3125 -1.421875 17.546875 -0.640625 
Q 12.796875 0.140625 7.71875 1.703125 
L 7.71875 11.625 
Q 12.109375 9.234375 16.796875 8.0625 
Q 21.484375 6.890625 26.703125 6.890625 
Q 35.15625 6.890625 40.078125 11.328125 
Q 45.015625 15.765625 45.015625 23.390625 
Q 45.015625 31 40.078125 35.4375 
Q 35.15625 39.890625 26.703125 39.890625 
Q 22.75 39.890625 18.8125 39.015625 
Q 14.890625 38.140625 10.796875 36.28125 
z
" id="DejaVuSans-53"/>
       </defs>
       <use xlink:href="#DejaVuSans-53"/>
      </g>
     </g>
    </g>
    <g id="xtick_6">
     <g id="line2d_6">
      <path clip-path="url(#pde301a623f)" d="M 158.736921 166.54 
L 158.736921 28.96 
" style="fill:none;stroke:#ffffff;stroke-linecap:round;"/>
     </g>
     <g id="text_6">
      <!-- 6 -->
      <g style="fill:#262626;" transform="translate(155.237546 184.398281)scale(0.11 -0.11)">
       <defs>
        <path d="M 33.015625 40.375 
Q 26.375 40.375 22.484375 35.828125 
Q 18.609375 31.296875 18.609375 23.390625 
Q 18.609375 15.53125 22.484375 10.953125 
Q 26.375 6.390625 33.015625 6.390625 
Q 39.65625 6.390625 43.53125 10.953125 
Q 47.40625 15.53125 47.40625 23.390625 
Q 47.40625 31.296875 43.53125 35.828125 
Q 39.65625 40.375 33.015625 40.375 
z
M 52.59375 71.296875 
L 52.59375 62.3125 
Q 48.875 64.0625 45.09375 64.984375 
Q 41.3125 65.921875 37.59375 65.921875 
Q 27.828125 65.921875 22.671875 59.328125 
Q 17.53125 52.734375 16.796875 39.40625 
Q 19.671875 43.65625 24.015625 45.921875 
Q 28.375 48.1875 33.59375 48.1875 
Q 44.578125 48.1875 50.953125 41.515625 
Q 57.328125 34.859375 57.328125 23.390625 
Q 57.328125 12.15625 50.6875 5.359375 
Q 44.046875 -1.421875 33.015625 -1.421875 
Q 20.359375 -1.421875 13.671875 8.265625 
Q 6.984375 17.96875 6.984375 36.375 
Q 6.984375 53.65625 15.1875 63.9375 
Q 23.390625 74.21875 37.203125 74.21875 
Q 40.921875 74.21875 44.703125 73.484375 
Q 48.484375 72.75 52.59375 71.296875 
z
" id="DejaVuSans-54"/>
       </defs>
       <use xlink:href="#DejaVuSans-54"/>
      </g>
     </g>
    </g>
    <g id="xtick_7">
     <g id="line2d_7">
      <path clip-path="url(#pde301a623f)" d="M 177.456334 166.54 
L 177.456334 28.96 
" style="fill:none;stroke:#ffffff;stroke-linecap:round;"/>
     </g>
     <g id="text_7">
      <!-- 7 -->
      <g style="fill:#262626;" transform="translate(173.956959 184.398281)scale(0.11 -0.11)">
       <defs>
        <path d="M 8.203125 72.90625 
L 55.078125 72.90625 
L 55.078125 68.703125 
L 28.609375 0 
L 18.3125 0 
L 43.21875 64.59375 
L 8.203125 64.59375 
z
" id="DejaVuSans-55"/>
       </defs>
       <use xlink:href="#DejaVuSans-55"/>
      </g>
     </g>
    </g>
    <g id="xtick_8">
     <g id="line2d_8">
      <path clip-path="url(#pde301a623f)" d="M 196.175748 166.54 
L 196.175748 28.96 
" style="fill:none;stroke:#ffffff;stroke-linecap:round;"/>
     </g>
     <g id="text_8">
      <!-- 8 -->
      <g style="fill:#262626;" transform="translate(192.676373 184.398281)scale(0.11 -0.11)">
       <defs>
        <path d="M 31.78125 34.625 
Q 24.75 34.625 20.71875 30.859375 
Q 16.703125 27.09375 16.703125 20.515625 
Q 16.703125 13.921875 20.71875 10.15625 
Q 24.75 6.390625 31.78125 6.390625 
Q 38.8125 6.390625 42.859375 10.171875 
Q 46.921875 13.96875 46.921875 20.515625 
Q 46.921875 27.09375 42.890625 30.859375 
Q 38.875 34.625 31.78125 34.625 
z
M 21.921875 38.8125 
Q 15.578125 40.375 12.03125 44.71875 
Q 8.5 49.078125 8.5 55.328125 
Q 8.5 64.0625 14.71875 69.140625 
Q 20.953125 74.21875 31.78125 74.21875 
Q 42.671875 74.21875 48.875 69.140625 
Q 55.078125 64.0625 55.078125 55.328125 
Q 55.078125 49.078125 51.53125 44.71875 
Q 48 40.375 41.703125 38.8125 
Q 48.828125 37.15625 52.796875 32.3125 
Q 56.78125 27.484375 56.78125 20.515625 
Q 56.78125 9.90625 50.3125 4.234375 
Q 43.84375 -1.421875 31.78125 -1.421875 
Q 19.734375 -1.421875 13.25 4.234375 
Q 6.78125 9.90625 6.78125 20.515625 
Q 6.78125 27.484375 10.78125 32.3125 
Q 14.796875 37.15625 21.921875 38.8125 
z
M 18.3125 54.390625 
Q 18.3125 48.734375 21.84375 45.5625 
Q 25.390625 42.390625 31.78125 42.390625 
Q 38.140625 42.390625 41.71875 45.5625 
Q 45.3125 48.734375 45.3125 54.390625 
Q 45.3125 60.0625 41.71875 63.234375 
Q 38.140625 66.40625 31.78125 66.40625 
Q 25.390625 66.40625 21.84375 63.234375 
Q 18.3125 60.0625 18.3125 54.390625 
z
" id="DejaVuSans-56"/>
       </defs>
       <use xlink:href="#DejaVuSans-56"/>
      </g>
     </g>
    </g>
    <g id="xtick_9">
     <g id="line2d_9">
      <path clip-path="url(#pde301a623f)" d="M 214.895161 166.54 
L 214.895161 28.96 
" style="fill:none;stroke:#ffffff;stroke-linecap:round;"/>
     </g>
     <g id="text_9">
      <!-- 9 -->
      <g style="fill:#262626;" transform="translate(211.395786 184.398281)scale(0.11 -0.11)">
       <defs>
        <path d="M 10.984375 1.515625 
L 10.984375 10.5 
Q 14.703125 8.734375 18.5 7.8125 
Q 22.3125 6.890625 25.984375 6.890625 
Q 35.75 6.890625 40.890625 13.453125 
Q 46.046875 20.015625 46.78125 33.40625 
Q 43.953125 29.203125 39.59375 26.953125 
Q 35.25 24.703125 29.984375 24.703125 
Q 19.046875 24.703125 12.671875 31.3125 
Q 6.296875 37.9375 6.296875 49.421875 
Q 6.296875 60.640625 12.9375 67.421875 
Q 19.578125 74.21875 30.609375 74.21875 
Q 43.265625 74.21875 49.921875 64.515625 
Q 56.59375 54.828125 56.59375 36.375 
Q 56.59375 19.140625 48.40625 8.859375 
Q 40.234375 -1.421875 26.421875 -1.421875 
Q 22.703125 -1.421875 18.890625 -0.6875 
Q 15.09375 0.046875 10.984375 1.515625 
z
M 30.609375 32.421875 
Q 37.25 32.421875 41.125 36.953125 
Q 45.015625 41.5 45.015625 49.421875 
Q 45.015625 57.28125 41.125 61.84375 
Q 37.25 66.40625 30.609375 66.40625 
Q 23.96875 66.40625 20.09375 61.84375 
Q 16.21875 57.28125 16.21875 49.421875 
Q 16.21875 41.5 20.09375 36.953125 
Q 23.96875 32.421875 30.609375 32.421875 
z
" id="DejaVuSans-57"/>
       </defs>
       <use xlink:href="#DejaVuSans-57"/>
      </g>
     </g>
    </g>
    <g id="xtick_10">
     <g id="line2d_10">
      <path clip-path="url(#pde301a623f)" d="M 233.614575 166.54 
L 233.614575 28.96 
" style="fill:none;stroke:#ffffff;stroke-linecap:round;"/>
     </g>
     <g id="text_10">
      <!-- 10 -->
      <g style="fill:#262626;" transform="translate(226.615825 184.398281)scale(0.11 -0.11)">
       <defs>
        <path d="M 31.78125 66.40625 
Q 24.171875 66.40625 20.328125 58.90625 
Q 16.5 51.421875 16.5 36.375 
Q 16.5 21.390625 20.328125 13.890625 
Q 24.171875 6.390625 31.78125 6.390625 
Q 39.453125 6.390625 43.28125 13.890625 
Q 47.125 21.390625 47.125 36.375 
Q 47.125 51.421875 43.28125 58.90625 
Q 39.453125 66.40625 31.78125 66.40625 
z
M 31.78125 74.21875 
Q 44.046875 74.21875 50.515625 64.515625 
Q 56.984375 54.828125 56.984375 36.375 
Q 56.984375 17.96875 50.515625 8.265625 
Q 44.046875 -1.421875 31.78125 -1.421875 
Q 19.53125 -1.421875 13.0625 8.265625 
Q 6.59375 17.96875 6.59375 36.375 
Q 6.59375 54.828125 13.0625 64.515625 
Q 19.53125 74.21875 31.78125 74.21875 
z
" id="DejaVuSans-48"/>
       </defs>
       <use xlink:href="#DejaVuSans-49"/>
       <use x="63.623047" xlink:href="#DejaVuSans-48"/>
      </g>
     </g>
    </g>
    <g id="xtick_11">
     <g id="line2d_11">
      <path clip-path="url(#pde301a623f)" d="M 252.333988 166.54 
L 252.333988 28.96 
" style="fill:none;stroke:#ffffff;stroke-linecap:round;"/>
     </g>
     <g id="text_11">
      <!-- 11 -->
      <g style="fill:#262626;" transform="translate(245.335238 184.398281)scale(0.11 -0.11)">
       <use xlink:href="#DejaVuSans-49"/>
       <use x="63.623047" xlink:href="#DejaVuSans-49"/>
      </g>
     </g>
    </g>
    <g id="xtick_12">
     <g id="line2d_12">
      <path clip-path="url(#pde301a623f)" d="M 271.053402 166.54 
L 271.053402 28.96 
" style="fill:none;stroke:#ffffff;stroke-linecap:round;"/>
     </g>
     <g id="text_12">
      <!-- 12 -->
      <g style="fill:#262626;" transform="translate(264.054652 184.398281)scale(0.11 -0.11)">
       <use xlink:href="#DejaVuSans-49"/>
       <use x="63.623047" xlink:href="#DejaVuSans-50"/>
      </g>
     </g>
    </g>
    <g id="xtick_13">
     <g id="line2d_13">
      <path clip-path="url(#pde301a623f)" d="M 289.772815 166.54 
L 289.772815 28.96 
" style="fill:none;stroke:#ffffff;stroke-linecap:round;"/>
     </g>
     <g id="text_13">
      <!-- 13 -->
      <g style="fill:#262626;" transform="translate(282.774065 184.398281)scale(0.11 -0.11)">
       <use xlink:href="#DejaVuSans-49"/>
       <use x="63.623047" xlink:href="#DejaVuSans-51"/>
      </g>
     </g>
    </g>
    <g id="xtick_14">
     <g id="line2d_14">
      <path clip-path="url(#pde301a623f)" d="M 308.492229 166.54 
L 308.492229 28.96 
" style="fill:none;stroke:#ffffff;stroke-linecap:round;"/>
     </g>
     <g id="text_14">
      <!-- 14 -->
      <g style="fill:#262626;" transform="translate(301.493479 184.398281)scale(0.11 -0.11)">
       <use xlink:href="#DejaVuSans-49"/>
       <use x="63.623047" xlink:href="#DejaVuSans-52"/>
      </g>
     </g>
    </g>
    <g id="xtick_15">
     <g id="line2d_15">
      <path clip-path="url(#pde301a623f)" d="M 327.211642 166.54 
L 327.211642 28.96 
" style="fill:none;stroke:#ffffff;stroke-linecap:round;"/>
     </g>
     <g id="text_15">
      <!-- 15 -->
      <g style="fill:#262626;" transform="translate(320.212892 184.398281)scale(0.11 -0.11)">
       <use xlink:href="#DejaVuSans-49"/>
       <use x="63.623047" xlink:href="#DejaVuSans-53"/>
      </g>
     </g>
    </g>
    <g id="xtick_16">
     <g id="line2d_16">
      <path clip-path="url(#pde301a623f)" d="M 345.931056 166.54 
L 345.931056 28.96 
" style="fill:none;stroke:#ffffff;stroke-linecap:round;"/>
     </g>
     <g id="text_16">
      <!-- 16 -->
      <g style="fill:#262626;" transform="translate(338.932306 184.398281)scale(0.11 -0.11)">
       <use xlink:href="#DejaVuSans-49"/>
       <use x="63.623047" xlink:href="#DejaVuSans-54"/>
      </g>
     </g>
    </g>
    <g id="text_17">
     <!-- Domains -->
     <g style="fill:#262626;" transform="translate(176.232017 199.804063)scale(0.12 -0.12)">
      <defs>
       <path d="M 27.984375 58.6875 
L 27.984375 14.203125 
L 34.71875 14.203125 
Q 46.234375 14.203125 52.3125 19.921875 
Q 58.40625 25.640625 58.40625 36.53125 
Q 58.40625 47.359375 52.34375 53.015625 
Q 46.296875 58.6875 34.71875 58.6875 
z
M 9.1875 72.90625 
L 29 72.90625 
Q 45.609375 72.90625 53.734375 70.53125 
Q 61.859375 68.171875 67.671875 62.5 
Q 72.796875 57.5625 75.28125 51.109375 
Q 77.78125 44.671875 77.78125 36.53125 
Q 77.78125 28.265625 75.28125 21.796875 
Q 72.796875 15.328125 67.671875 10.40625 
Q 61.8125 4.734375 53.609375 2.359375 
Q 45.40625 0 29 0 
L 9.1875 0 
z
" id="DejaVuSans-Bold-68"/>
       <path d="M 34.421875 43.5 
Q 28.609375 43.5 25.5625 39.328125 
Q 22.515625 35.15625 22.515625 27.296875 
Q 22.515625 19.4375 25.5625 15.25 
Q 28.609375 11.078125 34.421875 11.078125 
Q 40.140625 11.078125 43.15625 15.25 
Q 46.1875 19.4375 46.1875 27.296875 
Q 46.1875 35.15625 43.15625 39.328125 
Q 40.140625 43.5 34.421875 43.5 
z
M 34.421875 56 
Q 48.53125 56 56.46875 48.375 
Q 64.40625 40.765625 64.40625 27.296875 
Q 64.40625 13.8125 56.46875 6.1875 
Q 48.53125 -1.421875 34.421875 -1.421875 
Q 20.265625 -1.421875 12.28125 6.1875 
Q 4.296875 13.8125 4.296875 27.296875 
Q 4.296875 40.765625 12.28125 48.375 
Q 20.265625 56 34.421875 56 
z
" id="DejaVuSans-Bold-111"/>
       <path d="M 59.078125 45.609375 
Q 62.40625 50.6875 66.96875 53.34375 
Q 71.53125 56 77 56 
Q 86.421875 56 91.359375 50.1875 
Q 96.296875 44.390625 96.296875 33.296875 
L 96.296875 0 
L 78.71875 0 
L 78.71875 28.515625 
Q 78.765625 29.15625 78.78125 29.828125 
Q 78.8125 30.515625 78.8125 31.78125 
Q 78.8125 37.59375 77.09375 40.203125 
Q 75.390625 42.828125 71.578125 42.828125 
Q 66.609375 42.828125 63.890625 38.71875 
Q 61.1875 34.625 61.078125 26.859375 
L 61.078125 0 
L 43.5 0 
L 43.5 28.515625 
Q 43.5 37.59375 41.9375 40.203125 
Q 40.375 42.828125 36.375 42.828125 
Q 31.34375 42.828125 28.609375 38.703125 
Q 25.875 34.578125 25.875 26.90625 
L 25.875 0 
L 8.296875 0 
L 8.296875 54.6875 
L 25.875 54.6875 
L 25.875 46.6875 
Q 29.109375 51.3125 33.28125 53.65625 
Q 37.453125 56 42.484375 56 
Q 48.140625 56 52.484375 53.265625 
Q 56.84375 50.53125 59.078125 45.609375 
z
" id="DejaVuSans-Bold-109"/>
       <path d="M 32.90625 24.609375 
Q 27.4375 24.609375 24.671875 22.75 
Q 21.921875 20.90625 21.921875 17.28125 
Q 21.921875 13.96875 24.140625 12.078125 
Q 26.375 10.203125 30.328125 10.203125 
Q 35.25 10.203125 38.625 13.734375 
Q 42 17.28125 42 22.609375 
L 42 24.609375 
z
M 59.625 31.203125 
L 59.625 0 
L 42 0 
L 42 8.109375 
Q 38.484375 3.125 34.078125 0.84375 
Q 29.6875 -1.421875 23.390625 -1.421875 
Q 14.890625 -1.421875 9.59375 3.53125 
Q 4.296875 8.5 4.296875 16.40625 
Q 4.296875 26.03125 10.90625 30.515625 
Q 17.53125 35.015625 31.6875 35.015625 
L 42 35.015625 
L 42 36.375 
Q 42 40.53125 38.71875 42.453125 
Q 35.453125 44.390625 28.515625 44.390625 
Q 22.90625 44.390625 18.0625 43.265625 
Q 13.234375 42.140625 9.078125 39.890625 
L 9.078125 53.21875 
Q 14.703125 54.59375 20.359375 55.296875 
Q 26.03125 56 31.6875 56 
Q 46.484375 56 53.046875 50.171875 
Q 59.625 44.34375 59.625 31.203125 
z
" id="DejaVuSans-Bold-97"/>
       <path d="M 8.40625 54.6875 
L 25.875 54.6875 
L 25.875 0 
L 8.40625 0 
z
M 8.40625 75.984375 
L 25.875 75.984375 
L 25.875 61.71875 
L 8.40625 61.71875 
z
" id="DejaVuSans-Bold-105"/>
       <path d="M 63.375 33.296875 
L 63.375 0 
L 45.796875 0 
L 45.796875 5.421875 
L 45.796875 25.484375 
Q 45.796875 32.5625 45.484375 35.25 
Q 45.171875 37.9375 44.390625 39.203125 
Q 43.359375 40.921875 41.59375 41.875 
Q 39.84375 42.828125 37.59375 42.828125 
Q 32.125 42.828125 29 38.59375 
Q 25.875 34.375 25.875 26.90625 
L 25.875 0 
L 8.40625 0 
L 8.40625 54.6875 
L 25.875 54.6875 
L 25.875 46.6875 
Q 29.828125 51.46875 34.265625 53.734375 
Q 38.71875 56 44.09375 56 
Q 53.5625 56 58.46875 50.1875 
Q 63.375 44.390625 63.375 33.296875 
z
" id="DejaVuSans-Bold-110"/>
       <path d="M 51.125 52.984375 
L 51.125 39.703125 
Q 45.515625 42.046875 40.28125 43.21875 
Q 35.0625 44.390625 30.421875 44.390625 
Q 25.4375 44.390625 23.015625 43.140625 
Q 20.609375 41.890625 20.609375 39.3125 
Q 20.609375 37.203125 22.4375 36.078125 
Q 24.265625 34.96875 29 34.421875 
L 32.078125 33.984375 
Q 45.515625 32.28125 50.140625 28.375 
Q 54.78125 24.46875 54.78125 16.109375 
Q 54.78125 7.375 48.328125 2.96875 
Q 41.890625 -1.421875 29.109375 -1.421875 
Q 23.6875 -1.421875 17.890625 -0.5625 
Q 12.109375 0.296875 6 2 
L 6 15.28125 
Q 11.234375 12.75 16.71875 11.46875 
Q 22.21875 10.203125 27.875 10.203125 
Q 33.015625 10.203125 35.59375 11.609375 
Q 38.1875 13.03125 38.1875 15.828125 
Q 38.1875 18.171875 36.40625 19.3125 
Q 34.625 20.453125 29.296875 21.09375 
L 26.21875 21.484375 
Q 14.546875 22.953125 9.859375 26.90625 
Q 5.171875 30.859375 5.171875 38.921875 
Q 5.171875 47.609375 11.125 51.796875 
Q 17.09375 56 29.390625 56 
Q 34.234375 56 39.546875 55.265625 
Q 44.875 54.546875 51.125 52.984375 
z
" id="DejaVuSans-Bold-115"/>
      </defs>
      <use xlink:href="#DejaVuSans-Bold-68"/>
      <use x="83.007812" xlink:href="#DejaVuSans-Bold-111"/>
      <use x="151.708984" xlink:href="#DejaVuSans-Bold-109"/>
      <use x="255.908203" xlink:href="#DejaVuSans-Bold-97"/>
      <use x="323.388672" xlink:href="#DejaVuSans-Bold-105"/>
      <use x="357.666016" xlink:href="#DejaVuSans-Bold-110"/>
      <use x="428.857422" xlink:href="#DejaVuSans-Bold-115"/>
     </g>
    </g>
   </g>
   <g id="matplotlib.axis_2">
    <g id="ytick_1">
     <g id="line2d_17">
      <path clip-path="url(#pde301a623f)" d="M 60.46 166.54 
L 350.610909 166.54 
" style="fill:none;stroke:#ffffff;stroke-linecap:round;"/>
     </g>
     <g id="text_18">
      <!-- 0 -->
      <g style="fill:#262626;" transform="translate(43.96125 170.719141)scale(0.11 -0.11)">
       <use xlink:href="#DejaVuSans-48"/>
      </g>
     </g>
    </g>
    <g id="ytick_2">
     <g id="line2d_18">
      <path clip-path="url(#pde301a623f)" d="M 60.46 151.4062 
L 350.610909 151.4062 
" style="fill:none;stroke:#ffffff;stroke-linecap:round;"/>
     </g>
     <g id="text_19">
      <!-- 11 -->
      <g style="fill:#262626;" transform="translate(36.9625 155.585341)scale(0.11 -0.11)">
       <use xlink:href="#DejaVuSans-49"/>
       <use x="63.623047" xlink:href="#DejaVuSans-49"/>
      </g>
     </g>
    </g>
    <g id="ytick_3">
     <g id="line2d_19">
      <path clip-path="url(#pde301a623f)" d="M 60.46 136.2724 
L 350.610909 136.2724 
" style="fill:none;stroke:#ffffff;stroke-linecap:round;"/>
     </g>
     <g id="text_20">
      <!-- 22 -->
      <g style="fill:#262626;" transform="translate(36.9625 140.451541)scale(0.11 -0.11)">
       <use xlink:href="#DejaVuSans-50"/>
       <use x="63.623047" xlink:href="#DejaVuSans-50"/>
      </g>
     </g>
    </g>
    <g id="ytick_4">
     <g id="line2d_20">
      <path clip-path="url(#pde301a623f)" d="M 60.46 121.1386 
L 350.610909 121.1386 
" style="fill:none;stroke:#ffffff;stroke-linecap:round;"/>
     </g>
     <g id="text_21">
      <!-- 33 -->
      <g style="fill:#262626;" transform="translate(36.9625 125.317741)scale(0.11 -0.11)">
       <use xlink:href="#DejaVuSans-51"/>
       <use x="63.623047" xlink:href="#DejaVuSans-51"/>
      </g>
     </g>
    </g>
    <g id="ytick_5">
     <g id="line2d_21">
      <path clip-path="url(#pde301a623f)" d="M 60.46 106.0048 
L 350.610909 106.0048 
" style="fill:none;stroke:#ffffff;stroke-linecap:round;"/>
     </g>
     <g id="text_22">
      <!-- 44 -->
      <g style="fill:#262626;" transform="translate(36.9625 110.183941)scale(0.11 -0.11)">
       <use xlink:href="#DejaVuSans-52"/>
       <use x="63.623047" xlink:href="#DejaVuSans-52"/>
      </g>
     </g>
    </g>
    <g id="ytick_6">
     <g id="line2d_22">
      <path clip-path="url(#pde301a623f)" d="M 60.46 89.4952 
L 350.610909 89.4952 
" style="fill:none;stroke:#ffffff;stroke-linecap:round;"/>
     </g>
     <g id="text_23">
      <!-- 56 -->
      <g style="fill:#262626;" transform="translate(36.9625 93.674341)scale(0.11 -0.11)">
       <use xlink:href="#DejaVuSans-53"/>
       <use x="63.623047" xlink:href="#DejaVuSans-54"/>
      </g>
     </g>
    </g>
    <g id="ytick_7">
     <g id="line2d_23">
      <path clip-path="url(#pde301a623f)" d="M 60.46 74.3614 
L 350.610909 74.3614 
" style="fill:none;stroke:#ffffff;stroke-linecap:round;"/>
     </g>
     <g id="text_24">
      <!-- 67 -->
      <g style="fill:#262626;" transform="translate(36.9625 78.540541)scale(0.11 -0.11)">
       <use xlink:href="#DejaVuSans-54"/>
       <use x="63.623047" xlink:href="#DejaVuSans-55"/>
      </g>
     </g>
    </g>
    <g id="ytick_8">
     <g id="line2d_24">
      <path clip-path="url(#pde301a623f)" d="M 60.46 59.2276 
L 350.610909 59.2276 
" style="fill:none;stroke:#ffffff;stroke-linecap:round;"/>
     </g>
     <g id="text_25">
      <!-- 78 -->
      <g style="fill:#262626;" transform="translate(36.9625 63.406741)scale(0.11 -0.11)">
       <use xlink:href="#DejaVuSans-55"/>
       <use x="63.623047" xlink:href="#DejaVuSans-56"/>
      </g>
     </g>
    </g>
    <g id="ytick_9">
     <g id="line2d_25">
      <path clip-path="url(#pde301a623f)" d="M 60.46 44.0938 
L 350.610909 44.0938 
" style="fill:none;stroke:#ffffff;stroke-linecap:round;"/>
     </g>
     <g id="text_26">
      <!-- 89 -->
      <g style="fill:#262626;" transform="translate(36.9625 48.272941)scale(0.11 -0.11)">
       <use xlink:href="#DejaVuSans-56"/>
       <use x="63.623047" xlink:href="#DejaVuSans-57"/>
      </g>
     </g>
    </g>
    <g id="ytick_10">
     <g id="line2d_26">
      <path clip-path="url(#pde301a623f)" d="M 60.46 28.96 
L 350.610909 28.96 
" style="fill:none;stroke:#ffffff;stroke-linecap:round;"/>
     </g>
     <g id="text_27">
      <!-- 100 -->
      <g style="fill:#262626;" transform="translate(29.96375 33.139141)scale(0.11 -0.11)">
       <use xlink:href="#DejaVuSans-49"/>
       <use x="63.623047" xlink:href="#DejaVuSans-48"/>
       <use x="127.246094" xlink:href="#DejaVuSans-48"/>
      </g>
     </g>
    </g>
    <g id="text_28">
     <!-- Average Accuracy -->
     <g style="fill:#262626;" transform="translate(23.374375 158.122187)rotate(-90)scale(0.12 -0.12)">
      <defs>
       <path d="M 53.421875 13.28125 
L 24.03125 13.28125 
L 19.390625 0 
L 0.484375 0 
L 27.484375 72.90625 
L 49.90625 72.90625 
L 76.90625 0 
L 58.015625 0 
z
M 28.71875 26.8125 
L 48.6875 26.8125 
L 38.71875 55.8125 
z
" id="DejaVuSans-Bold-65"/>
       <path d="M 1.515625 54.6875 
L 19 54.6875 
L 32.625 16.890625 
L 46.1875 54.6875 
L 63.71875 54.6875 
L 42.1875 0 
L 23 0 
z
" id="DejaVuSans-Bold-118"/>
       <path d="M 62.984375 27.484375 
L 62.984375 22.515625 
L 22.125 22.515625 
Q 22.75 16.359375 26.5625 13.28125 
Q 30.375 10.203125 37.203125 10.203125 
Q 42.71875 10.203125 48.5 11.84375 
Q 54.296875 13.484375 60.40625 16.796875 
L 60.40625 3.328125 
Q 54.203125 0.984375 48 -0.21875 
Q 41.796875 -1.421875 35.59375 -1.421875 
Q 20.75 -1.421875 12.515625 6.125 
Q 4.296875 13.671875 4.296875 27.296875 
Q 4.296875 40.671875 12.375 48.328125 
Q 20.453125 56 34.625 56 
Q 47.515625 56 55.25 48.234375 
Q 62.984375 40.484375 62.984375 27.484375 
z
M 45.015625 33.296875 
Q 45.015625 38.28125 42.109375 41.328125 
Q 39.203125 44.390625 34.515625 44.390625 
Q 29.4375 44.390625 26.265625 41.53125 
Q 23.09375 38.671875 22.3125 33.296875 
z
" id="DejaVuSans-Bold-101"/>
       <path d="M 49.03125 39.796875 
Q 46.734375 40.875 44.453125 41.375 
Q 42.1875 41.890625 39.890625 41.890625 
Q 33.15625 41.890625 29.515625 37.5625 
Q 25.875 33.25 25.875 25.203125 
L 25.875 0 
L 8.40625 0 
L 8.40625 54.6875 
L 25.875 54.6875 
L 25.875 45.703125 
Q 29.25 51.078125 33.609375 53.53125 
Q 37.984375 56 44.09375 56 
Q 44.96875 56 45.984375 55.921875 
Q 47.015625 55.859375 48.96875 55.609375 
z
" id="DejaVuSans-Bold-114"/>
       <path d="M 45.609375 9.28125 
Q 42 4.5 37.640625 2.25 
Q 33.296875 0 27.59375 0 
Q 17.578125 0 11.03125 7.875 
Q 4.5 15.765625 4.5 27.984375 
Q 4.5 40.234375 11.03125 48.0625 
Q 17.578125 55.90625 27.59375 55.90625 
Q 33.296875 55.90625 37.640625 53.65625 
Q 42 51.421875 45.609375 46.578125 
L 45.609375 54.6875 
L 63.1875 54.6875 
L 63.1875 5.515625 
Q 63.1875 -7.671875 54.859375 -14.625 
Q 46.53125 -21.578125 30.71875 -21.578125 
Q 25.59375 -21.578125 20.796875 -20.796875 
Q 16.015625 -20.015625 11.1875 -18.40625 
L 11.1875 -4.78125 
Q 15.765625 -7.421875 20.15625 -8.71875 
Q 24.5625 -10.015625 29 -10.015625 
Q 37.59375 -10.015625 41.59375 -6.25 
Q 45.609375 -2.484375 45.609375 5.515625 
z
M 34.078125 43.3125 
Q 28.65625 43.3125 25.625 39.296875 
Q 22.609375 35.296875 22.609375 27.984375 
Q 22.609375 20.453125 25.53125 16.578125 
Q 28.46875 12.703125 34.078125 12.703125 
Q 39.546875 12.703125 42.578125 16.703125 
Q 45.609375 20.703125 45.609375 27.984375 
Q 45.609375 35.296875 42.578125 39.296875 
Q 39.546875 43.3125 34.078125 43.3125 
z
" id="DejaVuSans-Bold-103"/>
       <path id="DejaVuSans-Bold-32"/>
       <path d="M 52.59375 52.984375 
L 52.59375 38.71875 
Q 49.03125 41.15625 45.4375 42.328125 
Q 41.84375 43.5 37.984375 43.5 
Q 30.671875 43.5 26.59375 39.234375 
Q 22.515625 34.96875 22.515625 27.296875 
Q 22.515625 19.625 26.59375 15.34375 
Q 30.671875 11.078125 37.984375 11.078125 
Q 42.09375 11.078125 45.78125 12.296875 
Q 49.46875 13.53125 52.59375 15.921875 
L 52.59375 1.609375 
Q 48.484375 0.09375 44.265625 -0.65625 
Q 40.046875 -1.421875 35.796875 -1.421875 
Q 21 -1.421875 12.640625 6.171875 
Q 4.296875 13.765625 4.296875 27.296875 
Q 4.296875 40.828125 12.640625 48.40625 
Q 21 56 35.796875 56 
Q 40.09375 56 44.265625 55.25 
Q 48.4375 54.5 52.59375 52.984375 
z
" id="DejaVuSans-Bold-99"/>
       <path d="M 7.8125 21.296875 
L 7.8125 54.6875 
L 25.390625 54.6875 
L 25.390625 49.21875 
Q 25.390625 44.78125 25.34375 38.0625 
Q 25.296875 31.34375 25.296875 29.109375 
Q 25.296875 22.515625 25.640625 19.609375 
Q 25.984375 16.703125 26.8125 15.375 
Q 27.875 13.671875 29.609375 12.734375 
Q 31.34375 11.8125 33.59375 11.8125 
Q 39.0625 11.8125 42.1875 16.015625 
Q 45.3125 20.21875 45.3125 27.6875 
L 45.3125 54.6875 
L 62.796875 54.6875 
L 62.796875 0 
L 45.3125 0 
L 45.3125 7.90625 
Q 41.359375 3.125 36.9375 0.84375 
Q 32.515625 -1.421875 27.203125 -1.421875 
Q 17.71875 -1.421875 12.765625 4.390625 
Q 7.8125 10.203125 7.8125 21.296875 
z
" id="DejaVuSans-Bold-117"/>
       <path d="M 1.21875 54.6875 
L 18.703125 54.6875 
L 33.40625 17.578125 
L 45.90625 54.6875 
L 63.375 54.6875 
L 40.375 -5.171875 
Q 36.921875 -14.3125 32.296875 -17.9375 
Q 27.6875 -21.578125 20.125 -21.578125 
L 10.015625 -21.578125 
L 10.015625 -10.109375 
L 15.484375 -10.109375 
Q 19.921875 -10.109375 21.9375 -8.6875 
Q 23.96875 -7.28125 25.09375 -3.609375 
L 25.59375 -2.09375 
z
" id="DejaVuSans-Bold-121"/>
      </defs>
      <use xlink:href="#DejaVuSans-Bold-65"/>
      <use x="73.767578" xlink:href="#DejaVuSans-Bold-118"/>
      <use x="138.953125" xlink:href="#DejaVuSans-Bold-101"/>
      <use x="206.775391" xlink:href="#DejaVuSans-Bold-114"/>
      <use x="256.091797" xlink:href="#DejaVuSans-Bold-97"/>
      <use x="323.572266" xlink:href="#DejaVuSans-Bold-103"/>
      <use x="395.154297" xlink:href="#DejaVuSans-Bold-101"/>
      <use x="462.976562" xlink:href="#DejaVuSans-Bold-32"/>
      <use x="497.791016" xlink:href="#DejaVuSans-Bold-65"/>
      <use x="575.183594" xlink:href="#DejaVuSans-Bold-99"/>
      <use x="634.460938" xlink:href="#DejaVuSans-Bold-99"/>
      <use x="693.738281" xlink:href="#DejaVuSans-Bold-117"/>
      <use x="764.929688" xlink:href="#DejaVuSans-Bold-114"/>
      <use x="814.246094" xlink:href="#DejaVuSans-Bold-97"/>
      <use x="881.726562" xlink:href="#DejaVuSans-Bold-99"/>
      <use x="941.003906" xlink:href="#DejaVuSans-Bold-121"/>
     </g>
    </g>
   </g>
   <g id="line2d_27">
    <path clip-path="url(#pde301a623f)" d="M 65.139853 32.351952 
L 83.859267 35.080219 
L 102.57868 56.004954 
L 121.298094 43.747126 
L 140.017507 55.775498 
L 158.736921 54.904671 
L 177.456334 50.041879 
L 196.175748 49.308275 
L 214.895161 51.504959 
L 233.614575 53.745725 
L 252.333988 54.57946 
L 271.053402 55.180382 
L 289.772815 68.028703 
L 308.492229 69.476842 
L 327.211642 72.520882 
L 345.931056 74.479444 
" style="fill:none;stroke:#377eb8;stroke-linecap:round;stroke-width:1.5;"/>
    <defs>
     <path d="M 0 3 
C 0.795609 3 1.55874 2.683901 2.12132 2.12132 
C 2.683901 1.55874 3 0.795609 3 0 
C 3 -0.795609 2.683901 -1.55874 2.12132 -2.12132 
C 1.55874 -2.683901 0.795609 -3 0 -3 
C -0.795609 -3 -1.55874 -2.683901 -2.12132 -2.12132 
C -2.683901 -1.55874 -3 -0.795609 -3 0 
C -3 0.795609 -2.683901 1.55874 -2.12132 2.12132 
C -1.55874 2.683901 -0.795609 3 0 3 
z
" id="mc1623bbdc3" style="stroke:#1a1a1a;"/>
    </defs>
    <g clip-path="url(#pde301a623f)">
     <use style="fill:#377eb8;stroke:#1a1a1a;" x="65.139853" xlink:href="#mc1623bbdc3" y="32.351952"/>
     <use style="fill:#377eb8;stroke:#1a1a1a;" x="83.859267" xlink:href="#mc1623bbdc3" y="35.080219"/>
     <use style="fill:#377eb8;stroke:#1a1a1a;" x="102.57868" xlink:href="#mc1623bbdc3" y="56.004954"/>
     <use style="fill:#377eb8;stroke:#1a1a1a;" x="121.298094" xlink:href="#mc1623bbdc3" y="43.747126"/>
     <use style="fill:#377eb8;stroke:#1a1a1a;" x="140.017507" xlink:href="#mc1623bbdc3" y="55.775498"/>
     <use style="fill:#377eb8;stroke:#1a1a1a;" x="158.736921" xlink:href="#mc1623bbdc3" y="54.904671"/>
     <use style="fill:#377eb8;stroke:#1a1a1a;" x="177.456334" xlink:href="#mc1623bbdc3" y="50.041879"/>
     <use style="fill:#377eb8;stroke:#1a1a1a;" x="196.175748" xlink:href="#mc1623bbdc3" y="49.308275"/>
     <use style="fill:#377eb8;stroke:#1a1a1a;" x="214.895161" xlink:href="#mc1623bbdc3" y="51.504959"/>
     <use style="fill:#377eb8;stroke:#1a1a1a;" x="233.614575" xlink:href="#mc1623bbdc3" y="53.745725"/>
     <use style="fill:#377eb8;stroke:#1a1a1a;" x="252.333988" xlink:href="#mc1623bbdc3" y="54.57946"/>
     <use style="fill:#377eb8;stroke:#1a1a1a;" x="271.053402" xlink:href="#mc1623bbdc3" y="55.180382"/>
     <use style="fill:#377eb8;stroke:#1a1a1a;" x="289.772815" xlink:href="#mc1623bbdc3" y="68.028703"/>
     <use style="fill:#377eb8;stroke:#1a1a1a;" x="308.492229" xlink:href="#mc1623bbdc3" y="69.476842"/>
     <use style="fill:#377eb8;stroke:#1a1a1a;" x="327.211642" xlink:href="#mc1623bbdc3" y="72.520882"/>
     <use style="fill:#377eb8;stroke:#1a1a1a;" x="345.931056" xlink:href="#mc1623bbdc3" y="74.479444"/>
    </g>
   </g>
   <g id="line2d_28">
    <path clip-path="url(#pde301a623f)" d="M 65.139853 31.781353 
L 83.859267 35.233648 
L 102.57868 66.709283 
L 121.298094 58.127373 
L 140.017507 69.58952 
L 158.736921 52.703116 
L 177.456334 56.217542 
L 196.175748 55.301837 
L 214.895161 55.453726 
L 233.614575 58.522062 
L 252.333988 60.495895 
L 271.053402 59.127332 
L 289.772815 95.638505 
L 308.492229 84.368006 
L 327.211642 81.690919 
L 345.931056 90.354332 
" style="fill:none;stroke:#ff7f00;stroke-linecap:round;stroke-width:1.5;"/>
    <defs>
     <path d="M 0 3 
C 0.795609 3 1.55874 2.683901 2.12132 2.12132 
C 2.683901 1.55874 3 0.795609 3 0 
C 3 -0.795609 2.683901 -1.55874 2.12132 -2.12132 
C 1.55874 -2.683901 0.795609 -3 0 -3 
C -0.795609 -3 -1.55874 -2.683901 -2.12132 -2.12132 
C -2.683901 -1.55874 -3 -0.795609 -3 0 
C -3 0.795609 -2.683901 1.55874 -2.12132 2.12132 
C -1.55874 2.683901 -0.795609 3 0 3 
z
" id="m7a5bdedbea" style="stroke:#1a1a1a;"/>
    </defs>
    <g clip-path="url(#pde301a623f)">
     <use style="fill:#ff7f00;stroke:#1a1a1a;" x="65.139853" xlink:href="#m7a5bdedbea" y="31.781353"/>
     <use style="fill:#ff7f00;stroke:#1a1a1a;" x="83.859267" xlink:href="#m7a5bdedbea" y="35.233648"/>
     <use style="fill:#ff7f00;stroke:#1a1a1a;" x="102.57868" xlink:href="#m7a5bdedbea" y="66.709283"/>
     <use style="fill:#ff7f00;stroke:#1a1a1a;" x="121.298094" xlink:href="#m7a5bdedbea" y="58.127373"/>
     <use style="fill:#ff7f00;stroke:#1a1a1a;" x="140.017507" xlink:href="#m7a5bdedbea" y="69.58952"/>
     <use style="fill:#ff7f00;stroke:#1a1a1a;" x="158.736921" xlink:href="#m7a5bdedbea" y="52.703116"/>
     <use style="fill:#ff7f00;stroke:#1a1a1a;" x="177.456334" xlink:href="#m7a5bdedbea" y="56.217542"/>
     <use style="fill:#ff7f00;stroke:#1a1a1a;" x="196.175748" xlink:href="#m7a5bdedbea" y="55.301837"/>
     <use style="fill:#ff7f00;stroke:#1a1a1a;" x="214.895161" xlink:href="#m7a5bdedbea" y="55.453726"/>
     <use style="fill:#ff7f00;stroke:#1a1a1a;" x="233.614575" xlink:href="#m7a5bdedbea" y="58.522062"/>
     <use style="fill:#ff7f00;stroke:#1a1a1a;" x="252.333988" xlink:href="#m7a5bdedbea" y="60.495895"/>
     <use style="fill:#ff7f00;stroke:#1a1a1a;" x="271.053402" xlink:href="#m7a5bdedbea" y="59.127332"/>
     <use style="fill:#ff7f00;stroke:#1a1a1a;" x="289.772815" xlink:href="#m7a5bdedbea" y="95.638505"/>
     <use style="fill:#ff7f00;stroke:#1a1a1a;" x="308.492229" xlink:href="#m7a5bdedbea" y="84.368006"/>
     <use style="fill:#ff7f00;stroke:#1a1a1a;" x="327.211642" xlink:href="#m7a5bdedbea" y="81.690919"/>
     <use style="fill:#ff7f00;stroke:#1a1a1a;" x="345.931056" xlink:href="#m7a5bdedbea" y="90.354332"/>
    </g>
   </g>
   <g id="line2d_29">
    <path clip-path="url(#pde301a623f)" d="M 65.139853 32.130063 
L 83.859267 34.915673 
L 102.57868 71.907138 
L 121.298094 61.744571 
L 140.017507 75.529894 
L 158.736921 59.735573 
L 177.456334 52.476632 
L 196.175748 48.318717 
L 214.895161 50.739712 
L 233.614575 49.670303 
L 252.333988 48.646377 
L 271.053402 50.851372 
L 289.772815 100.980461 
L 308.492229 79.486062 
L 327.211642 73.157382 
L 345.931056 90.143945 
" style="fill:none;stroke:#4daf4a;stroke-linecap:round;stroke-width:1.5;"/>
    <defs>
     <path d="M 0 3 
C 0.795609 3 1.55874 2.683901 2.12132 2.12132 
C 2.683901 1.55874 3 0.795609 3 0 
C 3 -0.795609 2.683901 -1.55874 2.12132 -2.12132 
C 1.55874 -2.683901 0.795609 -3 0 -3 
C -0.795609 -3 -1.55874 -2.683901 -2.12132 -2.12132 
C -2.683901 -1.55874 -3 -0.795609 -3 0 
C -3 0.795609 -2.683901 1.55874 -2.12132 2.12132 
C -1.55874 2.683901 -0.795609 3 0 3 
z
" id="m19fda8e4ea" style="stroke:#1a1a1a;"/>
    </defs>
    <g clip-path="url(#pde301a623f)">
     <use style="fill:#4daf4a;stroke:#1a1a1a;" x="65.139853" xlink:href="#m19fda8e4ea" y="32.130063"/>
     <use style="fill:#4daf4a;stroke:#1a1a1a;" x="83.859267" xlink:href="#m19fda8e4ea" y="34.915673"/>
     <use style="fill:#4daf4a;stroke:#1a1a1a;" x="102.57868" xlink:href="#m19fda8e4ea" y="71.907138"/>
     <use style="fill:#4daf4a;stroke:#1a1a1a;" x="121.298094" xlink:href="#m19fda8e4ea" y="61.744571"/>
     <use style="fill:#4daf4a;stroke:#1a1a1a;" x="140.017507" xlink:href="#m19fda8e4ea" y="75.529894"/>
     <use style="fill:#4daf4a;stroke:#1a1a1a;" x="158.736921" xlink:href="#m19fda8e4ea" y="59.735573"/>
     <use style="fill:#4daf4a;stroke:#1a1a1a;" x="177.456334" xlink:href="#m19fda8e4ea" y="52.476632"/>
     <use style="fill:#4daf4a;stroke:#1a1a1a;" x="196.175748" xlink:href="#m19fda8e4ea" y="48.318717"/>
     <use style="fill:#4daf4a;stroke:#1a1a1a;" x="214.895161" xlink:href="#m19fda8e4ea" y="50.739712"/>
     <use style="fill:#4daf4a;stroke:#1a1a1a;" x="233.614575" xlink:href="#m19fda8e4ea" y="49.670303"/>
     <use style="fill:#4daf4a;stroke:#1a1a1a;" x="252.333988" xlink:href="#m19fda8e4ea" y="48.646377"/>
     <use style="fill:#4daf4a;stroke:#1a1a1a;" x="271.053402" xlink:href="#m19fda8e4ea" y="50.851372"/>
     <use style="fill:#4daf4a;stroke:#1a1a1a;" x="289.772815" xlink:href="#m19fda8e4ea" y="100.980461"/>
     <use style="fill:#4daf4a;stroke:#1a1a1a;" x="308.492229" xlink:href="#m19fda8e4ea" y="79.486062"/>
     <use style="fill:#4daf4a;stroke:#1a1a1a;" x="327.211642" xlink:href="#m19fda8e4ea" y="73.157382"/>
     <use style="fill:#4daf4a;stroke:#1a1a1a;" x="345.931056" xlink:href="#m19fda8e4ea" y="90.143945"/>
    </g>
   </g>
   <g id="patch_3">
    <path d="M 60.46 166.54 
L 60.46 28.96 
" style="fill:none;stroke:#ffffff;stroke-linecap:square;stroke-linejoin:miter;stroke-width:1.25;"/>
   </g>
   <g id="patch_4">
    <path d="M 350.610909 166.54 
L 350.610909 28.96 
" style="fill:none;stroke:#ffffff;stroke-linecap:square;stroke-linejoin:miter;stroke-width:1.25;"/>
   </g>
   <g id="patch_5">
    <path d="M 60.46 166.54 
L 350.610909 166.54 
" style="fill:none;stroke:#ffffff;stroke-linecap:square;stroke-linejoin:miter;stroke-width:1.25;"/>
   </g>
   <g id="patch_6">
    <path d="M 60.46 28.96 
L 350.610909 28.96 
" style="fill:none;stroke:#ffffff;stroke-linecap:square;stroke-linejoin:miter;stroke-width:1.25;"/>
   </g>
   <g id="text_29">
    <!-- Domain-aware Incremental Learning -->
    <g style="fill:#262626;" transform="translate(82.015142 22.96)scale(0.12 -0.12)">
     <defs>
      <path d="M 5.421875 35.890625 
L 36.078125 35.890625 
L 36.078125 21.6875 
L 5.421875 21.6875 
z
" id="DejaVuSans-Bold-45"/>
      <path d="M 3.515625 54.6875 
L 20.515625 54.6875 
L 29.6875 17 
L 38.921875 54.6875 
L 53.515625 54.6875 
L 62.703125 17.390625 
L 71.921875 54.6875 
L 88.921875 54.6875 
L 74.515625 0 
L 55.421875 0 
L 46.1875 37.59375 
L 37.015625 0 
L 17.921875 0 
z
" id="DejaVuSans-Bold-119"/>
      <path d="M 9.1875 72.90625 
L 27.984375 72.90625 
L 27.984375 0 
L 9.1875 0 
z
" id="DejaVuSans-Bold-73"/>
      <path d="M 27.484375 70.21875 
L 27.484375 54.6875 
L 45.515625 54.6875 
L 45.515625 42.1875 
L 27.484375 42.1875 
L 27.484375 19 
Q 27.484375 15.1875 29 13.84375 
Q 30.515625 12.5 35.015625 12.5 
L 44 12.5 
L 44 0 
L 29 0 
Q 18.65625 0 14.328125 4.3125 
Q 10.015625 8.640625 10.015625 19 
L 10.015625 42.1875 
L 1.3125 42.1875 
L 1.3125 54.6875 
L 10.015625 54.6875 
L 10.015625 70.21875 
z
" id="DejaVuSans-Bold-116"/>
      <path d="M 8.40625 75.984375 
L 25.875 75.984375 
L 25.875 0 
L 8.40625 0 
z
" id="DejaVuSans-Bold-108"/>
      <path d="M 9.1875 72.90625 
L 27.984375 72.90625 
L 27.984375 14.203125 
L 60.984375 14.203125 
L 60.984375 0 
L 9.1875 0 
z
" id="DejaVuSans-Bold-76"/>
     </defs>
     <use xlink:href="#DejaVuSans-Bold-68"/>
     <use x="83.007812" xlink:href="#DejaVuSans-Bold-111"/>
     <use x="151.708984" xlink:href="#DejaVuSans-Bold-109"/>
     <use x="255.908203" xlink:href="#DejaVuSans-Bold-97"/>
     <use x="323.388672" xlink:href="#DejaVuSans-Bold-105"/>
     <use x="357.666016" xlink:href="#DejaVuSans-Bold-110"/>
     <use x="428.857422" xlink:href="#DejaVuSans-Bold-45"/>
     <use x="470.361328" xlink:href="#DejaVuSans-Bold-97"/>
     <use x="537.841797" xlink:href="#DejaVuSans-Bold-119"/>
     <use x="630.224609" xlink:href="#DejaVuSans-Bold-97"/>
     <use x="697.705078" xlink:href="#DejaVuSans-Bold-114"/>
     <use x="747.021484" xlink:href="#DejaVuSans-Bold-101"/>
     <use x="814.84375" xlink:href="#DejaVuSans-Bold-32"/>
     <use x="849.658203" xlink:href="#DejaVuSans-Bold-73"/>
     <use x="886.865234" xlink:href="#DejaVuSans-Bold-110"/>
     <use x="958.056641" xlink:href="#DejaVuSans-Bold-99"/>
     <use x="1017.333984" xlink:href="#DejaVuSans-Bold-114"/>
     <use x="1066.650391" xlink:href="#DejaVuSans-Bold-101"/>
     <use x="1134.472656" xlink:href="#DejaVuSans-Bold-109"/>
     <use x="1238.671875" xlink:href="#DejaVuSans-Bold-101"/>
     <use x="1306.494141" xlink:href="#DejaVuSans-Bold-110"/>
     <use x="1377.685547" xlink:href="#DejaVuSans-Bold-116"/>
     <use x="1425.488281" xlink:href="#DejaVuSans-Bold-97"/>
     <use x="1492.96875" xlink:href="#DejaVuSans-Bold-108"/>
     <use x="1527.246094" xlink:href="#DejaVuSans-Bold-32"/>
     <use x="1562.060547" xlink:href="#DejaVuSans-Bold-76"/>
     <use x="1625.78125" xlink:href="#DejaVuSans-Bold-101"/>
     <use x="1693.603516" xlink:href="#DejaVuSans-Bold-97"/>
     <use x="1761.083984" xlink:href="#DejaVuSans-Bold-114"/>
     <use x="1810.400391" xlink:href="#DejaVuSans-Bold-110"/>
     <use x="1881.591797" xlink:href="#DejaVuSans-Bold-105"/>
     <use x="1915.869141" xlink:href="#DejaVuSans-Bold-110"/>
     <use x="1987.060547" xlink:href="#DejaVuSans-Bold-103"/>
    </g>
   </g>
  </g>
  <g id="axes_2">
   <g id="patch_7">
    <path d="M 413.98 166.54 
L 704.130909 166.54 
L 704.130909 28.96 
L 413.98 28.96 
z
" style="fill:#eaeaf2;"/>
   </g>
   <g id="matplotlib.axis_3">
    <g id="xtick_17">
     <g id="line2d_30">
      <path clip-path="url(#pc9dbcd8de9)" d="M 418.659853 166.54 
L 418.659853 28.96 
" style="fill:none;stroke:#ffffff;stroke-linecap:round;"/>
     </g>
     <g id="text_30">
      <!-- 1 -->
      <g style="fill:#262626;" transform="translate(415.160478 184.398281)scale(0.11 -0.11)">
       <use xlink:href="#DejaVuSans-49"/>
      </g>
     </g>
    </g>
    <g id="xtick_18">
     <g id="line2d_31">
      <path clip-path="url(#pc9dbcd8de9)" d="M 437.379267 166.54 
L 437.379267 28.96 
" style="fill:none;stroke:#ffffff;stroke-linecap:round;"/>
     </g>
     <g id="text_31">
      <!-- 2 -->
      <g style="fill:#262626;" transform="translate(433.879892 184.398281)scale(0.11 -0.11)">
       <use xlink:href="#DejaVuSans-50"/>
      </g>
     </g>
    </g>
    <g id="xtick_19">
     <g id="line2d_32">
      <path clip-path="url(#pc9dbcd8de9)" d="M 456.09868 166.54 
L 456.09868 28.96 
" style="fill:none;stroke:#ffffff;stroke-linecap:round;"/>
     </g>
     <g id="text_32">
      <!-- 3 -->
      <g style="fill:#262626;" transform="translate(452.599305 184.398281)scale(0.11 -0.11)">
       <use xlink:href="#DejaVuSans-51"/>
      </g>
     </g>
    </g>
    <g id="xtick_20">
     <g id="line2d_33">
      <path clip-path="url(#pc9dbcd8de9)" d="M 474.818094 166.54 
L 474.818094 28.96 
" style="fill:none;stroke:#ffffff;stroke-linecap:round;"/>
     </g>
     <g id="text_33">
      <!-- 4 -->
      <g style="fill:#262626;" transform="translate(471.318719 184.398281)scale(0.11 -0.11)">
       <use xlink:href="#DejaVuSans-52"/>
      </g>
     </g>
    </g>
    <g id="xtick_21">
     <g id="line2d_34">
      <path clip-path="url(#pc9dbcd8de9)" d="M 493.537507 166.54 
L 493.537507 28.96 
" style="fill:none;stroke:#ffffff;stroke-linecap:round;"/>
     </g>
     <g id="text_34">
      <!-- 5 -->
      <g style="fill:#262626;" transform="translate(490.038132 184.398281)scale(0.11 -0.11)">
       <use xlink:href="#DejaVuSans-53"/>
      </g>
     </g>
    </g>
    <g id="xtick_22">
     <g id="line2d_35">
      <path clip-path="url(#pc9dbcd8de9)" d="M 512.256921 166.54 
L 512.256921 28.96 
" style="fill:none;stroke:#ffffff;stroke-linecap:round;"/>
     </g>
     <g id="text_35">
      <!-- 6 -->
      <g style="fill:#262626;" transform="translate(508.757546 184.398281)scale(0.11 -0.11)">
       <use xlink:href="#DejaVuSans-54"/>
      </g>
     </g>
    </g>
    <g id="xtick_23">
     <g id="line2d_36">
      <path clip-path="url(#pc9dbcd8de9)" d="M 530.976334 166.54 
L 530.976334 28.96 
" style="fill:none;stroke:#ffffff;stroke-linecap:round;"/>
     </g>
     <g id="text_36">
      <!-- 7 -->
      <g style="fill:#262626;" transform="translate(527.476959 184.398281)scale(0.11 -0.11)">
       <use xlink:href="#DejaVuSans-55"/>
      </g>
     </g>
    </g>
    <g id="xtick_24">
     <g id="line2d_37">
      <path clip-path="url(#pc9dbcd8de9)" d="M 549.695748 166.54 
L 549.695748 28.96 
" style="fill:none;stroke:#ffffff;stroke-linecap:round;"/>
     </g>
     <g id="text_37">
      <!-- 8 -->
      <g style="fill:#262626;" transform="translate(546.196373 184.398281)scale(0.11 -0.11)">
       <use xlink:href="#DejaVuSans-56"/>
      </g>
     </g>
    </g>
    <g id="xtick_25">
     <g id="line2d_38">
      <path clip-path="url(#pc9dbcd8de9)" d="M 568.415161 166.54 
L 568.415161 28.96 
" style="fill:none;stroke:#ffffff;stroke-linecap:round;"/>
     </g>
     <g id="text_38">
      <!-- 9 -->
      <g style="fill:#262626;" transform="translate(564.915786 184.398281)scale(0.11 -0.11)">
       <use xlink:href="#DejaVuSans-57"/>
      </g>
     </g>
    </g>
    <g id="xtick_26">
     <g id="line2d_39">
      <path clip-path="url(#pc9dbcd8de9)" d="M 587.134575 166.54 
L 587.134575 28.96 
" style="fill:none;stroke:#ffffff;stroke-linecap:round;"/>
     </g>
     <g id="text_39">
      <!-- 10 -->
      <g style="fill:#262626;" transform="translate(580.135825 184.398281)scale(0.11 -0.11)">
       <use xlink:href="#DejaVuSans-49"/>
       <use x="63.623047" xlink:href="#DejaVuSans-48"/>
      </g>
     </g>
    </g>
    <g id="xtick_27">
     <g id="line2d_40">
      <path clip-path="url(#pc9dbcd8de9)" d="M 605.853988 166.54 
L 605.853988 28.96 
" style="fill:none;stroke:#ffffff;stroke-linecap:round;"/>
     </g>
     <g id="text_40">
      <!-- 11 -->
      <g style="fill:#262626;" transform="translate(598.855238 184.398281)scale(0.11 -0.11)">
       <use xlink:href="#DejaVuSans-49"/>
       <use x="63.623047" xlink:href="#DejaVuSans-49"/>
      </g>
     </g>
    </g>
    <g id="xtick_28">
     <g id="line2d_41">
      <path clip-path="url(#pc9dbcd8de9)" d="M 624.573402 166.54 
L 624.573402 28.96 
" style="fill:none;stroke:#ffffff;stroke-linecap:round;"/>
     </g>
     <g id="text_41">
      <!-- 12 -->
      <g style="fill:#262626;" transform="translate(617.574652 184.398281)scale(0.11 -0.11)">
       <use xlink:href="#DejaVuSans-49"/>
       <use x="63.623047" xlink:href="#DejaVuSans-50"/>
      </g>
     </g>
    </g>
    <g id="xtick_29">
     <g id="line2d_42">
      <path clip-path="url(#pc9dbcd8de9)" d="M 643.292815 166.54 
L 643.292815 28.96 
" style="fill:none;stroke:#ffffff;stroke-linecap:round;"/>
     </g>
     <g id="text_42">
      <!-- 13 -->
      <g style="fill:#262626;" transform="translate(636.294065 184.398281)scale(0.11 -0.11)">
       <use xlink:href="#DejaVuSans-49"/>
       <use x="63.623047" xlink:href="#DejaVuSans-51"/>
      </g>
     </g>
    </g>
    <g id="xtick_30">
     <g id="line2d_43">
      <path clip-path="url(#pc9dbcd8de9)" d="M 662.012229 166.54 
L 662.012229 28.96 
" style="fill:none;stroke:#ffffff;stroke-linecap:round;"/>
     </g>
     <g id="text_43">
      <!-- 14 -->
      <g style="fill:#262626;" transform="translate(655.013479 184.398281)scale(0.11 -0.11)">
       <use xlink:href="#DejaVuSans-49"/>
       <use x="63.623047" xlink:href="#DejaVuSans-52"/>
      </g>
     </g>
    </g>
    <g id="xtick_31">
     <g id="line2d_44">
      <path clip-path="url(#pc9dbcd8de9)" d="M 680.731642 166.54 
L 680.731642 28.96 
" style="fill:none;stroke:#ffffff;stroke-linecap:round;"/>
     </g>
     <g id="text_44">
      <!-- 15 -->
      <g style="fill:#262626;" transform="translate(673.732892 184.398281)scale(0.11 -0.11)">
       <use xlink:href="#DejaVuSans-49"/>
       <use x="63.623047" xlink:href="#DejaVuSans-53"/>
      </g>
     </g>
    </g>
    <g id="xtick_32">
     <g id="line2d_45">
      <path clip-path="url(#pc9dbcd8de9)" d="M 699.451056 166.54 
L 699.451056 28.96 
" style="fill:none;stroke:#ffffff;stroke-linecap:round;"/>
     </g>
     <g id="text_45">
      <!-- 16 -->
      <g style="fill:#262626;" transform="translate(692.452306 184.398281)scale(0.11 -0.11)">
       <use xlink:href="#DejaVuSans-49"/>
       <use x="63.623047" xlink:href="#DejaVuSans-54"/>
      </g>
     </g>
    </g>
    <g id="text_46">
     <!-- Domains -->
     <g style="fill:#262626;" transform="translate(529.752017 199.804063)scale(0.12 -0.12)">
      <use xlink:href="#DejaVuSans-Bold-68"/>
      <use x="83.007812" xlink:href="#DejaVuSans-Bold-111"/>
      <use x="151.708984" xlink:href="#DejaVuSans-Bold-109"/>
      <use x="255.908203" xlink:href="#DejaVuSans-Bold-97"/>
      <use x="323.388672" xlink:href="#DejaVuSans-Bold-105"/>
      <use x="357.666016" xlink:href="#DejaVuSans-Bold-110"/>
      <use x="428.857422" xlink:href="#DejaVuSans-Bold-115"/>
     </g>
    </g>
   </g>
   <g id="matplotlib.axis_4">
    <g id="ytick_11">
     <g id="line2d_46">
      <path clip-path="url(#pc9dbcd8de9)" d="M 413.98 166.54 
L 704.130909 166.54 
" style="fill:none;stroke:#ffffff;stroke-linecap:round;"/>
     </g>
     <g id="text_47">
      <!-- 0 -->
      <g style="fill:#262626;" transform="translate(397.48125 170.719141)scale(0.11 -0.11)">
       <use xlink:href="#DejaVuSans-48"/>
      </g>
     </g>
    </g>
    <g id="ytick_12">
     <g id="line2d_47">
      <path clip-path="url(#pc9dbcd8de9)" d="M 413.98 151.4062 
L 704.130909 151.4062 
" style="fill:none;stroke:#ffffff;stroke-linecap:round;"/>
     </g>
     <g id="text_48">
      <!-- 11 -->
      <g style="fill:#262626;" transform="translate(390.4825 155.585341)scale(0.11 -0.11)">
       <use xlink:href="#DejaVuSans-49"/>
       <use x="63.623047" xlink:href="#DejaVuSans-49"/>
      </g>
     </g>
    </g>
    <g id="ytick_13">
     <g id="line2d_48">
      <path clip-path="url(#pc9dbcd8de9)" d="M 413.98 136.2724 
L 704.130909 136.2724 
" style="fill:none;stroke:#ffffff;stroke-linecap:round;"/>
     </g>
     <g id="text_49">
      <!-- 22 -->
      <g style="fill:#262626;" transform="translate(390.4825 140.451541)scale(0.11 -0.11)">
       <use xlink:href="#DejaVuSans-50"/>
       <use x="63.623047" xlink:href="#DejaVuSans-50"/>
      </g>
     </g>
    </g>
    <g id="ytick_14">
     <g id="line2d_49">
      <path clip-path="url(#pc9dbcd8de9)" d="M 413.98 121.1386 
L 704.130909 121.1386 
" style="fill:none;stroke:#ffffff;stroke-linecap:round;"/>
     </g>
     <g id="text_50">
      <!-- 33 -->
      <g style="fill:#262626;" transform="translate(390.4825 125.317741)scale(0.11 -0.11)">
       <use xlink:href="#DejaVuSans-51"/>
       <use x="63.623047" xlink:href="#DejaVuSans-51"/>
      </g>
     </g>
    </g>
    <g id="ytick_15">
     <g id="line2d_50">
      <path clip-path="url(#pc9dbcd8de9)" d="M 413.98 106.0048 
L 704.130909 106.0048 
" style="fill:none;stroke:#ffffff;stroke-linecap:round;"/>
     </g>
     <g id="text_51">
      <!-- 44 -->
      <g style="fill:#262626;" transform="translate(390.4825 110.183941)scale(0.11 -0.11)">
       <use xlink:href="#DejaVuSans-52"/>
       <use x="63.623047" xlink:href="#DejaVuSans-52"/>
      </g>
     </g>
    </g>
    <g id="ytick_16">
     <g id="line2d_51">
      <path clip-path="url(#pc9dbcd8de9)" d="M 413.98 89.4952 
L 704.130909 89.4952 
" style="fill:none;stroke:#ffffff;stroke-linecap:round;"/>
     </g>
     <g id="text_52">
      <!-- 56 -->
      <g style="fill:#262626;" transform="translate(390.4825 93.674341)scale(0.11 -0.11)">
       <use xlink:href="#DejaVuSans-53"/>
       <use x="63.623047" xlink:href="#DejaVuSans-54"/>
      </g>
     </g>
    </g>
    <g id="ytick_17">
     <g id="line2d_52">
      <path clip-path="url(#pc9dbcd8de9)" d="M 413.98 74.3614 
L 704.130909 74.3614 
" style="fill:none;stroke:#ffffff;stroke-linecap:round;"/>
     </g>
     <g id="text_53">
      <!-- 67 -->
      <g style="fill:#262626;" transform="translate(390.4825 78.540541)scale(0.11 -0.11)">
       <use xlink:href="#DejaVuSans-54"/>
       <use x="63.623047" xlink:href="#DejaVuSans-55"/>
      </g>
     </g>
    </g>
    <g id="ytick_18">
     <g id="line2d_53">
      <path clip-path="url(#pc9dbcd8de9)" d="M 413.98 59.2276 
L 704.130909 59.2276 
" style="fill:none;stroke:#ffffff;stroke-linecap:round;"/>
     </g>
     <g id="text_54">
      <!-- 78 -->
      <g style="fill:#262626;" transform="translate(390.4825 63.406741)scale(0.11 -0.11)">
       <use xlink:href="#DejaVuSans-55"/>
       <use x="63.623047" xlink:href="#DejaVuSans-56"/>
      </g>
     </g>
    </g>
    <g id="ytick_19">
     <g id="line2d_54">
      <path clip-path="url(#pc9dbcd8de9)" d="M 413.98 44.0938 
L 704.130909 44.0938 
" style="fill:none;stroke:#ffffff;stroke-linecap:round;"/>
     </g>
     <g id="text_55">
      <!-- 89 -->
      <g style="fill:#262626;" transform="translate(390.4825 48.272941)scale(0.11 -0.11)">
       <use xlink:href="#DejaVuSans-56"/>
       <use x="63.623047" xlink:href="#DejaVuSans-57"/>
      </g>
     </g>
    </g>
    <g id="ytick_20">
     <g id="line2d_55">
      <path clip-path="url(#pc9dbcd8de9)" d="M 413.98 28.96 
L 704.130909 28.96 
" style="fill:none;stroke:#ffffff;stroke-linecap:round;"/>
     </g>
     <g id="text_56">
      <!-- 100 -->
      <g style="fill:#262626;" transform="translate(383.48375 33.139141)scale(0.11 -0.11)">
       <use xlink:href="#DejaVuSans-49"/>
       <use x="63.623047" xlink:href="#DejaVuSans-48"/>
       <use x="127.246094" xlink:href="#DejaVuSans-48"/>
      </g>
     </g>
    </g>
    <g id="text_57">
     <!-- Average Accuracy -->
     <g style="fill:#262626;" transform="translate(376.894375 158.122187)rotate(-90)scale(0.12 -0.12)">
      <use xlink:href="#DejaVuSans-Bold-65"/>
      <use x="73.767578" xlink:href="#DejaVuSans-Bold-118"/>
      <use x="138.953125" xlink:href="#DejaVuSans-Bold-101"/>
      <use x="206.775391" xlink:href="#DejaVuSans-Bold-114"/>
      <use x="256.091797" xlink:href="#DejaVuSans-Bold-97"/>
      <use x="323.572266" xlink:href="#DejaVuSans-Bold-103"/>
      <use x="395.154297" xlink:href="#DejaVuSans-Bold-101"/>
      <use x="462.976562" xlink:href="#DejaVuSans-Bold-32"/>
      <use x="497.791016" xlink:href="#DejaVuSans-Bold-65"/>
      <use x="575.183594" xlink:href="#DejaVuSans-Bold-99"/>
      <use x="634.460938" xlink:href="#DejaVuSans-Bold-99"/>
      <use x="693.738281" xlink:href="#DejaVuSans-Bold-117"/>
      <use x="764.929688" xlink:href="#DejaVuSans-Bold-114"/>
      <use x="814.246094" xlink:href="#DejaVuSans-Bold-97"/>
      <use x="881.726562" xlink:href="#DejaVuSans-Bold-99"/>
      <use x="941.003906" xlink:href="#DejaVuSans-Bold-121"/>
     </g>
    </g>
   </g>
   <g id="line2d_56">
    <path clip-path="url(#pc9dbcd8de9)" d="M 418.659853 32.351952 
L 437.379267 57.77924 
L 456.09868 109.825562 
L 474.818094 100.087044 
L 493.537507 102.78529 
L 512.256921 96.676848 
L 530.976334 91.403132 
L 549.695748 95.042893 
L 568.415161 92.089216 
L 587.134575 93.840362 
L 605.853988 96.964969 
L 624.573402 98.005954 
L 643.292815 111.65367 
L 662.012229 114.989214 
L 680.731642 119.301384 
L 699.451056 121.513836 
" style="fill:none;stroke:#377eb8;stroke-linecap:round;stroke-width:1.5;"/>
    <g clip-path="url(#pc9dbcd8de9)">
     <use style="fill:#377eb8;stroke:#1a1a1a;" x="418.659853" xlink:href="#mc1623bbdc3" y="32.351952"/>
     <use style="fill:#377eb8;stroke:#1a1a1a;" x="437.379267" xlink:href="#mc1623bbdc3" y="57.77924"/>
     <use style="fill:#377eb8;stroke:#1a1a1a;" x="456.09868" xlink:href="#mc1623bbdc3" y="109.825562"/>
     <use style="fill:#377eb8;stroke:#1a1a1a;" x="474.818094" xlink:href="#mc1623bbdc3" y="100.087044"/>
     <use style="fill:#377eb8;stroke:#1a1a1a;" x="493.537507" xlink:href="#mc1623bbdc3" y="102.78529"/>
     <use style="fill:#377eb8;stroke:#1a1a1a;" x="512.256921" xlink:href="#mc1623bbdc3" y="96.676848"/>
     <use style="fill:#377eb8;stroke:#1a1a1a;" x="530.976334" xlink:href="#mc1623bbdc3" y="91.403132"/>
     <use style="fill:#377eb8;stroke:#1a1a1a;" x="549.695748" xlink:href="#mc1623bbdc3" y="95.042893"/>
     <use style="fill:#377eb8;stroke:#1a1a1a;" x="568.415161" xlink:href="#mc1623bbdc3" y="92.089216"/>
     <use style="fill:#377eb8;stroke:#1a1a1a;" x="587.134575" xlink:href="#mc1623bbdc3" y="93.840362"/>
     <use style="fill:#377eb8;stroke:#1a1a1a;" x="605.853988" xlink:href="#mc1623bbdc3" y="96.964969"/>
     <use style="fill:#377eb8;stroke:#1a1a1a;" x="624.573402" xlink:href="#mc1623bbdc3" y="98.005954"/>
     <use style="fill:#377eb8;stroke:#1a1a1a;" x="643.292815" xlink:href="#mc1623bbdc3" y="111.65367"/>
     <use style="fill:#377eb8;stroke:#1a1a1a;" x="662.012229" xlink:href="#mc1623bbdc3" y="114.989214"/>
     <use style="fill:#377eb8;stroke:#1a1a1a;" x="680.731642" xlink:href="#mc1623bbdc3" y="119.301384"/>
     <use style="fill:#377eb8;stroke:#1a1a1a;" x="699.451056" xlink:href="#mc1623bbdc3" y="121.513836"/>
    </g>
   </g>
   <g id="line2d_57">
    <path clip-path="url(#pc9dbcd8de9)" d="M 418.659853 31.781353 
L 437.379267 62.191156 
L 456.09868 125.622827 
L 474.818094 130.690834 
L 493.537507 136.747876 
L 512.256921 108.015614 
L 530.976334 114.598377 
L 549.695748 111.910256 
L 568.415161 112.046075 
L 587.134575 110.743991 
L 605.853988 117.23496 
L 624.573402 117.725405 
L 643.292815 150.860475 
L 662.012229 143.532992 
L 680.731642 143.501761 
L 699.451056 153.889216 
" style="fill:none;stroke:#ff7f00;stroke-linecap:round;stroke-width:1.5;"/>
    <g clip-path="url(#pc9dbcd8de9)">
     <use style="fill:#ff7f00;stroke:#1a1a1a;" x="418.659853" xlink:href="#m7a5bdedbea" y="31.781353"/>
     <use style="fill:#ff7f00;stroke:#1a1a1a;" x="437.379267" xlink:href="#m7a5bdedbea" y="62.191156"/>
     <use style="fill:#ff7f00;stroke:#1a1a1a;" x="456.09868" xlink:href="#m7a5bdedbea" y="125.622827"/>
     <use style="fill:#ff7f00;stroke:#1a1a1a;" x="474.818094" xlink:href="#m7a5bdedbea" y="130.690834"/>
     <use style="fill:#ff7f00;stroke:#1a1a1a;" x="493.537507" xlink:href="#m7a5bdedbea" y="136.747876"/>
     <use style="fill:#ff7f00;stroke:#1a1a1a;" x="512.256921" xlink:href="#m7a5bdedbea" y="108.015614"/>
     <use style="fill:#ff7f00;stroke:#1a1a1a;" x="530.976334" xlink:href="#m7a5bdedbea" y="114.598377"/>
     <use style="fill:#ff7f00;stroke:#1a1a1a;" x="549.695748" xlink:href="#m7a5bdedbea" y="111.910256"/>
     <use style="fill:#ff7f00;stroke:#1a1a1a;" x="568.415161" xlink:href="#m7a5bdedbea" y="112.046075"/>
     <use style="fill:#ff7f00;stroke:#1a1a1a;" x="587.134575" xlink:href="#m7a5bdedbea" y="110.743991"/>
     <use style="fill:#ff7f00;stroke:#1a1a1a;" x="605.853988" xlink:href="#m7a5bdedbea" y="117.23496"/>
     <use style="fill:#ff7f00;stroke:#1a1a1a;" x="624.573402" xlink:href="#m7a5bdedbea" y="117.725405"/>
     <use style="fill:#ff7f00;stroke:#1a1a1a;" x="643.292815" xlink:href="#m7a5bdedbea" y="150.860475"/>
     <use style="fill:#ff7f00;stroke:#1a1a1a;" x="662.012229" xlink:href="#m7a5bdedbea" y="143.532992"/>
     <use style="fill:#ff7f00;stroke:#1a1a1a;" x="680.731642" xlink:href="#m7a5bdedbea" y="143.501761"/>
     <use style="fill:#ff7f00;stroke:#1a1a1a;" x="699.451056" xlink:href="#m7a5bdedbea" y="153.889216"/>
    </g>
   </g>
   <g id="line2d_58">
    <path clip-path="url(#pc9dbcd8de9)" d="M 418.659853 32.130063 
L 437.379267 72.555057 
L 456.09868 124.474117 
L 474.818094 131.851597 
L 493.537507 134.64692 
L 512.256921 108.740633 
L 530.976334 102.630816 
L 549.695748 107.14022 
L 568.415161 91.608621 
L 587.134575 94.305244 
L 605.853988 102.387299 
L 624.573402 109.235509 
L 643.292815 149.146999 
L 662.012229 137.048681 
L 680.731642 133.43473 
L 699.451056 143.317184 
" style="fill:none;stroke:#4daf4a;stroke-linecap:round;stroke-width:1.5;"/>
    <g clip-path="url(#pc9dbcd8de9)">
     <use style="fill:#4daf4a;stroke:#1a1a1a;" x="418.659853" xlink:href="#m19fda8e4ea" y="32.130063"/>
     <use style="fill:#4daf4a;stroke:#1a1a1a;" x="437.379267" xlink:href="#m19fda8e4ea" y="72.555057"/>
     <use style="fill:#4daf4a;stroke:#1a1a1a;" x="456.09868" xlink:href="#m19fda8e4ea" y="124.474117"/>
     <use style="fill:#4daf4a;stroke:#1a1a1a;" x="474.818094" xlink:href="#m19fda8e4ea" y="131.851597"/>
     <use style="fill:#4daf4a;stroke:#1a1a1a;" x="493.537507" xlink:href="#m19fda8e4ea" y="134.64692"/>
     <use style="fill:#4daf4a;stroke:#1a1a1a;" x="512.256921" xlink:href="#m19fda8e4ea" y="108.740633"/>
     <use style="fill:#4daf4a;stroke:#1a1a1a;" x="530.976334" xlink:href="#m19fda8e4ea" y="102.630816"/>
     <use style="fill:#4daf4a;stroke:#1a1a1a;" x="549.695748" xlink:href="#m19fda8e4ea" y="107.14022"/>
     <use style="fill:#4daf4a;stroke:#1a1a1a;" x="568.415161" xlink:href="#m19fda8e4ea" y="91.608621"/>
     <use style="fill:#4daf4a;stroke:#1a1a1a;" x="587.134575" xlink:href="#m19fda8e4ea" y="94.305244"/>
     <use style="fill:#4daf4a;stroke:#1a1a1a;" x="605.853988" xlink:href="#m19fda8e4ea" y="102.387299"/>
     <use style="fill:#4daf4a;stroke:#1a1a1a;" x="624.573402" xlink:href="#m19fda8e4ea" y="109.235509"/>
     <use style="fill:#4daf4a;stroke:#1a1a1a;" x="643.292815" xlink:href="#m19fda8e4ea" y="149.146999"/>
     <use style="fill:#4daf4a;stroke:#1a1a1a;" x="662.012229" xlink:href="#m19fda8e4ea" y="137.048681"/>
     <use style="fill:#4daf4a;stroke:#1a1a1a;" x="680.731642" xlink:href="#m19fda8e4ea" y="133.43473"/>
     <use style="fill:#4daf4a;stroke:#1a1a1a;" x="699.451056" xlink:href="#m19fda8e4ea" y="143.317184"/>
    </g>
   </g>
   <g id="patch_8">
    <path d="M 413.98 166.54 
L 413.98 28.96 
" style="fill:none;stroke:#ffffff;stroke-linecap:square;stroke-linejoin:miter;stroke-width:1.25;"/>
   </g>
   <g id="patch_9">
    <path d="M 704.130909 166.54 
L 704.130909 28.96 
" style="fill:none;stroke:#ffffff;stroke-linecap:square;stroke-linejoin:miter;stroke-width:1.25;"/>
   </g>
   <g id="patch_10">
    <path d="M 413.98 166.54 
L 704.130909 166.54 
" style="fill:none;stroke:#ffffff;stroke-linecap:square;stroke-linejoin:miter;stroke-width:1.25;"/>
   </g>
   <g id="patch_11">
    <path d="M 413.98 28.96 
L 704.130909 28.96 
" style="fill:none;stroke:#ffffff;stroke-linecap:square;stroke-linejoin:miter;stroke-width:1.25;"/>
   </g>
   <g id="text_58">
    <!-- Domain-agnostic Incremental Learning -->
    <g style="fill:#262626;" transform="translate(427.415455 22.96)scale(0.12 -0.12)">
     <use xlink:href="#DejaVuSans-Bold-68"/>
     <use x="83.007812" xlink:href="#DejaVuSans-Bold-111"/>
     <use x="151.708984" xlink:href="#DejaVuSans-Bold-109"/>
     <use x="255.908203" xlink:href="#DejaVuSans-Bold-97"/>
     <use x="323.388672" xlink:href="#DejaVuSans-Bold-105"/>
     <use x="357.666016" xlink:href="#DejaVuSans-Bold-110"/>
     <use x="428.857422" xlink:href="#DejaVuSans-Bold-45"/>
     <use x="470.361328" xlink:href="#DejaVuSans-Bold-97"/>
     <use x="537.841797" xlink:href="#DejaVuSans-Bold-103"/>
     <use x="609.423828" xlink:href="#DejaVuSans-Bold-110"/>
     <use x="680.615234" xlink:href="#DejaVuSans-Bold-111"/>
     <use x="749.316406" xlink:href="#DejaVuSans-Bold-115"/>
     <use x="808.837891" xlink:href="#DejaVuSans-Bold-116"/>
     <use x="856.640625" xlink:href="#DejaVuSans-Bold-105"/>
     <use x="890.917969" xlink:href="#DejaVuSans-Bold-99"/>
     <use x="950.195312" xlink:href="#DejaVuSans-Bold-32"/>
     <use x="985.009766" xlink:href="#DejaVuSans-Bold-73"/>
     <use x="1022.216797" xlink:href="#DejaVuSans-Bold-110"/>
     <use x="1093.408203" xlink:href="#DejaVuSans-Bold-99"/>
     <use x="1152.685547" xlink:href="#DejaVuSans-Bold-114"/>
     <use x="1202.001953" xlink:href="#DejaVuSans-Bold-101"/>
     <use x="1269.824219" xlink:href="#DejaVuSans-Bold-109"/>
     <use x="1374.023438" xlink:href="#DejaVuSans-Bold-101"/>
     <use x="1441.845703" xlink:href="#DejaVuSans-Bold-110"/>
     <use x="1513.037109" xlink:href="#DejaVuSans-Bold-116"/>
     <use x="1560.839844" xlink:href="#DejaVuSans-Bold-97"/>
     <use x="1628.320312" xlink:href="#DejaVuSans-Bold-108"/>
     <use x="1662.597656" xlink:href="#DejaVuSans-Bold-32"/>
     <use x="1697.412109" xlink:href="#DejaVuSans-Bold-76"/>
     <use x="1761.132812" xlink:href="#DejaVuSans-Bold-101"/>
     <use x="1828.955078" xlink:href="#DejaVuSans-Bold-97"/>
     <use x="1896.435547" xlink:href="#DejaVuSans-Bold-114"/>
     <use x="1945.751953" xlink:href="#DejaVuSans-Bold-110"/>
     <use x="2016.943359" xlink:href="#DejaVuSans-Bold-105"/>
     <use x="2051.220703" xlink:href="#DejaVuSans-Bold-110"/>
     <use x="2122.412109" xlink:href="#DejaVuSans-Bold-103"/>
    </g>
   </g>
  </g>
  <g id="legend_1">
   <g id="patch_12">
    <path d="M 271.681875 216.9 
L 448.318125 216.9 
Q 450.118125 216.9 450.118125 215.1 
L 450.118125 202.789688 
Q 450.118125 200.989688 448.318125 200.989688 
L 271.681875 200.989688 
Q 269.881875 200.989688 269.881875 202.789688 
L 269.881875 215.1 
Q 269.881875 216.9 271.681875 216.9 
z
" style="fill:#eaeaf2;opacity:0.8;stroke:#cccccc;stroke-linejoin:miter;"/>
   </g>
   <g id="line2d_59">
    <path d="M 273.481875 208.278281 
L 291.481875 208.278281 
" style="fill:none;stroke:#377eb8;stroke-linecap:round;stroke-width:1.5;"/>
   </g>
   <g id="line2d_60">
    <g>
     <use style="fill:#377eb8;stroke:#1a1a1a;" x="282.481875" xlink:href="#mc1623bbdc3" y="208.278281"/>
    </g>
   </g>
   <g id="text_59">
    <!-- iCarL -->
    <g style="fill:#262626;" transform="translate(298.681875 211.428281)scale(0.09 -0.09)">
     <defs>
      <path d="M 9.421875 54.6875 
L 18.40625 54.6875 
L 18.40625 0 
L 9.421875 0 
z
M 9.421875 75.984375 
L 18.40625 75.984375 
L 18.40625 64.59375 
L 9.421875 64.59375 
z
" id="DejaVuSans-105"/>
      <path d="M 64.40625 67.28125 
L 64.40625 56.890625 
Q 59.421875 61.53125 53.78125 63.8125 
Q 48.140625 66.109375 41.796875 66.109375 
Q 29.296875 66.109375 22.65625 58.46875 
Q 16.015625 50.828125 16.015625 36.375 
Q 16.015625 21.96875 22.65625 14.328125 
Q 29.296875 6.6875 41.796875 6.6875 
Q 48.140625 6.6875 53.78125 8.984375 
Q 59.421875 11.28125 64.40625 15.921875 
L 64.40625 5.609375 
Q 59.234375 2.09375 53.4375 0.328125 
Q 47.65625 -1.421875 41.21875 -1.421875 
Q 24.65625 -1.421875 15.125 8.703125 
Q 5.609375 18.84375 5.609375 36.375 
Q 5.609375 53.953125 15.125 64.078125 
Q 24.65625 74.21875 41.21875 74.21875 
Q 47.75 74.21875 53.53125 72.484375 
Q 59.328125 70.75 64.40625 67.28125 
z
" id="DejaVuSans-67"/>
      <path d="M 34.28125 27.484375 
Q 23.390625 27.484375 19.1875 25 
Q 14.984375 22.515625 14.984375 16.5 
Q 14.984375 11.71875 18.140625 8.90625 
Q 21.296875 6.109375 26.703125 6.109375 
Q 34.1875 6.109375 38.703125 11.40625 
Q 43.21875 16.703125 43.21875 25.484375 
L 43.21875 27.484375 
z
M 52.203125 31.203125 
L 52.203125 0 
L 43.21875 0 
L 43.21875 8.296875 
Q 40.140625 3.328125 35.546875 0.953125 
Q 30.953125 -1.421875 24.3125 -1.421875 
Q 15.921875 -1.421875 10.953125 3.296875 
Q 6 8.015625 6 15.921875 
Q 6 25.140625 12.171875 29.828125 
Q 18.359375 34.515625 30.609375 34.515625 
L 43.21875 34.515625 
L 43.21875 35.40625 
Q 43.21875 41.609375 39.140625 45 
Q 35.0625 48.390625 27.6875 48.390625 
Q 23 48.390625 18.546875 47.265625 
Q 14.109375 46.140625 10.015625 43.890625 
L 10.015625 52.203125 
Q 14.9375 54.109375 19.578125 55.046875 
Q 24.21875 56 28.609375 56 
Q 40.484375 56 46.34375 49.84375 
Q 52.203125 43.703125 52.203125 31.203125 
z
" id="DejaVuSans-97"/>
      <path d="M 41.109375 46.296875 
Q 39.59375 47.171875 37.8125 47.578125 
Q 36.03125 48 33.890625 48 
Q 26.265625 48 22.1875 43.046875 
Q 18.109375 38.09375 18.109375 28.8125 
L 18.109375 0 
L 9.078125 0 
L 9.078125 54.6875 
L 18.109375 54.6875 
L 18.109375 46.1875 
Q 20.953125 51.171875 25.484375 53.578125 
Q 30.03125 56 36.53125 56 
Q 37.453125 56 38.578125 55.875 
Q 39.703125 55.765625 41.0625 55.515625 
z
" id="DejaVuSans-114"/>
      <path d="M 9.8125 72.90625 
L 19.671875 72.90625 
L 19.671875 8.296875 
L 55.171875 8.296875 
L 55.171875 0 
L 9.8125 0 
z
" id="DejaVuSans-76"/>
     </defs>
     <use xlink:href="#DejaVuSans-105"/>
     <use x="27.783203" xlink:href="#DejaVuSans-67"/>
     <use x="97.607422" xlink:href="#DejaVuSans-97"/>
     <use x="158.886719" xlink:href="#DejaVuSans-114"/>
     <use x="200" xlink:href="#DejaVuSans-76"/>
    </g>
   </g>
   <g id="line2d_61">
    <path d="M 339.696563 208.278281 
L 357.696563 208.278281 
" style="fill:none;stroke:#ff7f00;stroke-linecap:round;stroke-width:1.5;"/>
   </g>
   <g id="line2d_62">
    <g>
     <use style="fill:#ff7f00;stroke:#1a1a1a;" x="348.696563" xlink:href="#m7a5bdedbea" y="208.278281"/>
    </g>
   </g>
   <g id="text_60">
    <!-- EWC -->
    <g style="fill:#262626;" transform="translate(364.896563 211.428281)scale(0.09 -0.09)">
     <defs>
      <path d="M 9.8125 72.90625 
L 55.90625 72.90625 
L 55.90625 64.59375 
L 19.671875 64.59375 
L 19.671875 43.015625 
L 54.390625 43.015625 
L 54.390625 34.71875 
L 19.671875 34.71875 
L 19.671875 8.296875 
L 56.78125 8.296875 
L 56.78125 0 
L 9.8125 0 
z
" id="DejaVuSans-69"/>
      <path d="M 3.328125 72.90625 
L 13.28125 72.90625 
L 28.609375 11.28125 
L 43.890625 72.90625 
L 54.984375 72.90625 
L 70.3125 11.28125 
L 85.59375 72.90625 
L 95.609375 72.90625 
L 77.296875 0 
L 64.890625 0 
L 49.515625 63.28125 
L 33.984375 0 
L 21.578125 0 
z
" id="DejaVuSans-87"/>
     </defs>
     <use xlink:href="#DejaVuSans-69"/>
     <use x="63.183594" xlink:href="#DejaVuSans-87"/>
     <use x="162.060547" xlink:href="#DejaVuSans-67"/>
    </g>
   </g>
   <g id="line2d_63">
    <path d="M 403.766719 208.278281 
L 421.766719 208.278281 
" style="fill:none;stroke:#4daf4a;stroke-linecap:round;stroke-width:1.5;"/>
   </g>
   <g id="line2d_64">
    <g>
     <use style="fill:#4daf4a;stroke:#1a1a1a;" x="412.766719" xlink:href="#m19fda8e4ea" y="208.278281"/>
    </g>
   </g>
   <g id="text_61">
    <!-- LwF -->
    <g style="fill:#262626;" transform="translate(428.966719 211.428281)scale(0.09 -0.09)">
     <defs>
      <path d="M 4.203125 54.6875 
L 13.1875 54.6875 
L 24.421875 12.015625 
L 35.59375 54.6875 
L 46.1875 54.6875 
L 57.421875 12.015625 
L 68.609375 54.6875 
L 77.59375 54.6875 
L 63.28125 0 
L 52.6875 0 
L 40.921875 44.828125 
L 29.109375 0 
L 18.5 0 
z
" id="DejaVuSans-119"/>
      <path d="M 9.8125 72.90625 
L 51.703125 72.90625 
L 51.703125 64.59375 
L 19.671875 64.59375 
L 19.671875 43.109375 
L 48.578125 43.109375 
L 48.578125 34.8125 
L 19.671875 34.8125 
L 19.671875 0 
L 9.8125 0 
z
" id="DejaVuSans-70"/>
     </defs>
     <use xlink:href="#DejaVuSans-76"/>
     <use x="55.712891" xlink:href="#DejaVuSans-119"/>
     <use x="137.5" xlink:href="#DejaVuSans-70"/>
    </g>
   </g>
  </g>
 </g>
 <defs>
  <clipPath id="pde301a623f">
   <rect height="137.58" width="290.150909" x="60.46" y="28.96"/>
  </clipPath>
  <clipPath id="pc9dbcd8de9">
   <rect height="137.58" width="290.150909" x="413.98" y="28.96"/>
  </clipPath>
 </defs>
</svg>
